<svg xmlns="http://www.w3.org/2000/svg" viewBox="0 0 512 512" role="img" aria-labelledby="title">
  <title id="title">Tag Battle Home Arena</title>
  <defs>
    <linearGradient id="background" x1="64" y1="48" x2="448" y2="464" gradientUnits="userSpaceOnUse">
      <stop stop-color="#7c3aed"/>
      <stop offset="0.5" stop-color="#312e81"/>
      <stop offset="1" stop-color="#be123c"/>
    </linearGradient>
    <linearGradient id="bolt" x1="180" y1="120" x2="344" y2="392" gradientUnits="userSpaceOnUse">
      <stop stop-color="#fef3c7"/>
      <stop offset="1" stop-color="#f59e0b"/>
    </linearGradient>
  </defs>
  <rect width="512" height="512" rx="112" fill="#0a0510"/>
  <rect x="32" y="32" width="448" height="448" rx="96" fill="url(#background)" stroke="#ffffff" stroke-opacity="0.18" stroke-width="8"/>
  <path d="M125 151c0-28 23-51 51-51h160c28 0 51 23 51 51v210c0 28-23 51-51 51H176c-28 0-51-23-51-51V151Z" fill="#08030f" fill-opacity="0.72" stroke="#ffffff" stroke-opacity="0.28" stroke-width="10"/>
  <path d="M279 119 179 279h72l-18 114 100-164h-72l18-110Z" fill="url(#bolt)" stroke="#fff7d6" stroke-width="8" stroke-linejoin="round"/>
  <circle cx="157" cy="132" r="13" fill="#67e8f9"/>
  <circle cx="355" cy="380" r="13" fill="#fda4af"/>
</svg>
